<?xml version="1.0" encoding="UTF-8"?>
<svg width="470px" height="120px" viewBox="0 0 470 120" version="1.1" xmlns="http://www.w3.org/2000/svg" xmlns:xlink="http://www.w3.org/1999/xlink">
    <title>pluto_white</title>
    <g id="Page-1" stroke="none" stroke-width="1" fill="none" fill-rule="evenodd">
        <g id="pluto_white" fill="#FFFFFF" fill-rule="nonzero">
            <path d="M212.59,28.09 C201.89,28.09 194.12,33.42 189.95,43.77 L189.95,30 L177,30 L177,120 L189.95,120 L189.95,95.45 L189.73,81.11 C193.84,91.83 201.69,97.36 212.59,97.36 C222.68,97.36 231,93 236.32,85.22 C240.27,79.49 242.32,71.86 242.32,62.72 C242.32,53.58 240.27,45.95 236.32,40.22 C231,32.45 222.68,28.08 212.59,28.08 L212.59,28.09 Z M224.73,78.27 C221.32,83.18 216,85.77 209.32,85.77 C202.64,85.77 197.32,83.18 193.91,78.27 C191.18,74.45 189.68,69.13 189.68,62.72 C189.68,56.31 191.18,50.99 193.91,47.17 C197.32,42.26 202.64,39.67 209.32,39.67 C216,39.67 221.32,42.26 224.73,47.17 C227.46,50.99 228.96,56.31 228.96,62.72 C228.96,69.13 227.46,74.45 224.73,78.27 Z" id="Shape"></path>
            <polygon id="Path" points="266.09 0 253.14 0 253.14 95.45 266.09 95.45"></polygon>
            <path d="M321.08,64.09 C321.08,77.18 314.67,85.36 304.44,85.36 C295.44,85.36 290.8,79.63 290.8,68.45 L290.8,30 L277.85,30 L277.85,69.82 C277.85,87.82 285.49,97.37 300.9,97.37 C310.26,97.37 317.01,92.05 321.07,81.73 L321.07,95.46 L334.04,95.46 L334.04,30 L321.09,30 L321.09,64.09 L321.08,64.09 Z" id="Path"></path>
            <path d="M367.33,11.1802 L354.38,17.5902 L354.38,30.0002 L340.74,30.0002 L340.74,41.5902 L354.38,41.5902 L354.38,74.4502 C354.38,89.7202 361.06,97.3602 375.65,97.3602 C389.15,97.3602 396.65,88.2202 396.65,72.6802 L396.65,63.2702 L383.7,63.2702 L383.7,72.5402 C383.7,81.9502 381.52,85.7702 375.38,85.7702 C370.47,85.7702 367.33,82.0902 367.33,74.4502 L367.33,41.5902 L396.65,41.5902 L396.65,30.0002 L367.33,30.0002 L367.33,11.1802 Z" id="Path"></path>
            <path d="M463.91,41.8598 C458.05,33.1298 448.23,28.0898 436.23,28.0898 C424.23,28.0898 414.41,33.1398 408.55,41.8598 C404.73,47.4498 402.55,54.5398 402.55,62.7198 C402.55,70.8998 404.73,77.9898 408.55,83.5798 C414.41,92.3098 424.23,97.3498 436.23,97.3498 C448.23,97.3498 458.05,92.2998 463.91,83.5798 C467.73,77.9898 469.91,70.8998 469.91,62.7198 C469.91,54.5398 467.73,47.4498 463.91,41.8598 Z M452.46,77.4498 C448.91,82.6298 443.19,85.7698 436.23,85.7698 C429.27,85.7698 423.55,82.6298 420,77.4498 C417.41,73.6298 415.91,68.5898 415.91,62.7198 C415.91,56.8498 417.41,51.8098 420,47.9898 C423.55,42.8098 429.27,39.6698 436.23,39.6698 C443.19,39.6698 448.91,42.8098 452.46,47.9898 C455.05,51.8098 456.55,56.8498 456.55,62.7198 C456.55,68.5898 455.05,73.6298 452.46,77.4498 Z" id="Shape"></path>
            <polygon id="Path" points="2.84217094e-14 65 55 65 55 120"></polygon>
            <path d="M55,65 L55,0 L76.72,0 C95.1,0 110,14.55 110,32.5 C110,50.45 95.1,65 76.72,65 L55,65 Z" id="Path"></path>
        </g>
    </g>
</svg>